<?xml version="1.0" standalone="no"?>
<!DOCTYPE svg PUBLIC "-//W3C//DTD SVG 20010904//EN"
 "http://www.w3.org/TR/2001/REC-SVG-20010904/DTD/svg10.dtd">
<svg version="1.0" xmlns="http://www.w3.org/2000/svg"
 width="224.000000pt" height="224.000000pt" viewBox="0 0 224.000000 224.000000"
 preserveAspectRatio="xMidYMid meet">
<metadata>
Created by potrace 1.11, written by Peter Selinger 2001-2013
</metadata>
<g transform="translate(0.000000,224.000000) scale(0.100000,-0.100000)"
fill="#000000" stroke="none">
<path d="M872 1479 c-48 -14 -106 -78 -133 -145 -20 -52 -23 -77 -23 -209 -1
-166 11 -220 63 -293 76 -103 251 -112 346 -17 63 63 89 151 89 305 0 246 -85
372 -250 369 -32 0 -74 -5 -92 -10z m155 -144 c12 -14 28 -44 34 -68 17 -57
16 -252 0 -302 -36 -107 -129 -125 -180 -34 -41 72 -43 294 -4 377 30 64 106
78 150 27z"/>
<path d="M4 1118 l1 -353 53 -5 c29 -3 58 -3 64 1 7 4 9 79 7 232 -3 176 -2
217 7 188 6 -20 40 -93 74 -163 84 -169 90 -170 161 -20 28 59 61 134 73 168
l21 60 -3 -232 -4 -232 51 -3 c93 -7 86 -38 85 357 l0 349 -59 3 c-32 2 -62
-1 -67 -6 -15 -15 -117 -242 -142 -315 l-23 -68 -11 43 c-6 24 -43 107 -82
186 -38 79 -70 148 -70 153 0 5 -31 9 -68 9 l-68 0 0 -352z"/>
<path d="M1250 1465 c0 -3 25 -87 56 -187 30 -101 79 -261 107 -355 l52 -173
53 0 c28 0 52 2 52 3 0 2 47 161 105 352 58 192 105 352 105 357 0 4 -30 8
-68 8 l-67 0 -53 -212 c-29 -117 -56 -238 -60 -268 l-8 -55 -7 55 c-3 30 -30
151 -59 268 l-53 212 -77 0 c-43 0 -78 -2 -78 -5z"/>
<path d="M1863 1115 l0 -355 41 0 c63 -1 246 -1 289 -1 l37 1 0 60 0 60 -115
0 c-95 0 -115 3 -116 15 -1 8 -1 38 -1 65 0 111 -11 100 101 100 109 0 107 -1
106 70 l-1 45 -102 3 c-71 2 -102 6 -103 15 -1 13 -1 138 0 150 1 4 52 7 114
7 l113 0 0 60 0 60 -182 0 -181 0 0 -355z"/>
</g>
</svg>
